<?xml version="1.0" encoding="iso-8859-1"?>
<!-- Generator: Adobe Illustrator 19.0.0, SVG Export Plug-In . SVG Version: 6.00 Build 0)  -->
<svg xmlns="http://www.w3.org/2000/svg" xmlns:xlink="http://www.w3.org/1999/xlink" version="1.1" id="Layer_1" x="0px" y="0px" viewBox="0 0 512.001 512.001" style="enable-background:new 0 0 512.001 512.001;" xml:space="preserve">
<path style="fill:#6AC6D8;" d="M412.207,198.568c22.121,31.514,35.105,69.908,35.105,111.336  c0,107.15-86.864,194.012-194.012,194.012c-107.151,0-194.012-86.863-194.012-194.012S146.15,115.891,253.3,115.891"/>
<g style="opacity:0.1;">
	<path style="fill:#231F20;" d="M84.901,309.904c0-99.368,74.708-181.274,171.017-192.649l-2.619-1.363   c-107.151,0-194.012,86.863-194.012,194.012s86.863,194.012,194.012,194.012c4.304,0,8.572-0.156,12.807-0.431   C164.929,496.889,84.901,412.749,84.901,309.904z"/>
</g>
<circle style="fill:#FFFFFF;" cx="363.594" cy="307.478" r="15.897"/>
<path style="fill:#F57555;" d="M443.164,57.017l-1.739-3.13c-14.894-26.799-41.566-42.905-69.959-45.459  c-0.203-0.017-0.406-0.033-0.61-0.051c-1.105-0.093-2.215-0.158-3.324-0.208c-0.499-0.023-0.998-0.038-1.495-0.051  c-0.811-0.023-1.623-0.034-2.436-0.036c-0.813,0.001-1.625,0.013-2.436,0.036c-0.497,0.013-0.998,0.028-1.497,0.051  c-1.109,0.05-2.217,0.115-3.322,0.208c-0.206,0.017-0.409,0.033-0.61,0.051c-28.395,2.554-55.067,18.661-69.959,45.459l-1.741,3.129  c-12.821,25.461-13.228,56.615,1.665,83.412l77.899,133.545l61.101-104.749l12.315-21.11l4.484-7.687  C456.394,113.632,455.986,82.478,443.164,57.017z M361.815,145.745c-26.95,0-48.795-21.848-48.795-48.795  c0-26.948,21.846-48.795,48.795-48.795c26.948,0,48.796,21.847,48.796,48.795C410.611,123.897,388.764,145.745,361.815,145.745z"/>
<g style="opacity:0.1;">
	<path style="fill:#231F20;" d="M304.721,123.228c-14.894-26.796-14.485-57.952-1.664-83.412l1.74-3.129   c2.704-4.866,5.802-9.374,9.223-13.518c-11.364,7.606-21.144,17.943-28.243,30.719l-1.741,3.129   c-12.821,25.461-13.228,56.615,1.665,83.412L363.6,273.974l14.526-24.904L304.721,123.228z"/>
</g>
<g>
	<path style="fill:#231F20;" d="M419.272,194.576l12.411-21.278c2.249-3.857,0.946-8.807-2.909-11.057   c-3.855-2.249-8.807-0.946-11.057,2.909L363.6,257.93l-70.875-121.501c-12.978-23.407-13.553-51.661-1.543-75.631l1.66-2.985   c13.044-23.471,36.826-38.923,63.565-41.33l0.613-0.051c1.001-0.083,2.003-0.143,3.005-0.189c0.448-0.019,0.898-0.033,1.37-0.045   c1.498-0.042,2.933-0.042,4.435,0.001c0.446,0.011,0.894,0.026,1.34,0.044c1.005,0.045,2.008,0.106,3.02,0.19l0.551,0.045   c26.79,2.41,50.573,17.862,63.616,41.333l1.658,2.985c12.014,23.97,11.439,52.224-1.54,75.633l-4.442,7.613   c-2.249,3.857-0.946,8.807,2.909,11.057c3.855,2.251,8.807,0.947,11.057-2.909l4.484-7.687c0.028-0.049,0.056-0.097,0.083-0.147   c15.648-28.153,16.327-62.163,1.817-90.974c-0.049-0.098-0.1-0.195-0.153-0.289l-1.74-3.132   C432.84,21.804,404.317,3.268,372.136,0.373l-0.608-0.051c-1.209-0.102-2.424-0.175-3.641-0.229   c-0.55-0.026-1.099-0.042-1.622-0.056c-1.745-0.051-3.572-0.051-5.307,0c-0.548,0.014-1.1,0.03-1.651,0.056   c-1.215,0.054-2.427,0.126-3.619,0.226l-0.677,0.057c-32.13,2.891-60.654,21.427-76.299,49.58l-1.741,3.129   c-0.055,0.097-0.107,0.196-0.156,0.294c-8.677,17.232-11.917,36.322-9.776,54.907c-4.574-0.307-9.169-0.481-13.74-0.481   c-1.868,0-3.729,0.03-5.585,0.081c-0.885,0.024-1.767,0.066-2.649,0.101c-0.906,0.037-1.814,0.069-2.718,0.119   c-1.228,0.065-2.451,0.148-3.674,0.234c-0.47,0.033-0.94,0.066-1.409,0.102c-1.532,0.119-3.059,0.255-4.584,0.409   c-0.01,0.001-0.02,0.002-0.03,0.003c-24.995,2.507-48.981,9.578-71.529,21.155c-27.363,14.049-51.565,34.547-69.989,59.277   c-0.246,0.33-0.453,0.675-0.641,1.027c-24.681,33.51-39.289,74.874-39.289,119.59c0,45.308,14.989,87.182,40.266,120.924   c0.177,0.314,0.368,0.621,0.587,0.911c18.454,24.385,42.574,44.582,69.754,58.407c22.335,11.362,46.073,18.314,70.789,20.8   c0.046,0.004,0.092,0.01,0.138,0.014c1.515,0.152,3.035,0.288,4.558,0.406c0.47,0.037,0.941,0.068,1.411,0.102   c1.226,0.086,2.452,0.169,3.683,0.234c0.895,0.047,1.794,0.08,2.691,0.116c0.887,0.034,1.772,0.078,2.661,0.101   c1.847,0.051,3.7,0.08,5.56,0.08c1.859,0,3.712-0.029,5.56-0.08c0.888-0.024,1.773-0.067,2.659-0.101   c0.899-0.037,1.798-0.068,2.694-0.116c1.229-0.065,2.454-0.148,3.679-0.234c0.472-0.033,0.944-0.065,1.416-0.102   c1.521-0.117,3.038-0.254,4.553-0.405c0.048-0.005,0.097-0.01,0.146-0.015c24.714-2.488,48.449-9.439,70.783-20.8   c27.181-13.826,51.302-34.022,69.755-58.407c0.22-0.29,0.41-0.597,0.586-0.91c25.278-33.742,40.266-75.615,40.266-120.925   C455.396,268.38,442.904,228.521,419.272,194.576z M406.183,415.586c-13.136-8.875-28.246-16.437-44.832-22.545   c5.161-19.715,8.476-40.888,9.745-62.787c6.165-2.035,11.232-6.503,14.054-12.267h53.892   C437.488,354.131,425.568,387.63,406.183,415.586z M311.188,486.594c8.649-8.212,16.716-18.314,23.999-30.197   c8.624-14.071,15.866-30.161,21.57-47.677c14.71,5.468,28.102,12.101,39.637,19.768   C374.257,455.154,344.824,475.546,311.188,486.594z M67.558,317.988h67.457c0.596,26.271,4.089,51.667,10.215,75.06   c-16.577,6.106-31.681,13.666-44.813,22.538C81.032,387.63,69.112,354.131,67.558,317.988z M99.548,205.474   c13.219,9.054,28.47,16.759,45.24,22.972c-5.854,22.925-9.192,47.735-9.774,73.374H67.558   C69.088,266.215,80.673,233.174,99.548,205.474z M195.319,133.244c-9.864,9.399-18.969,21.278-27.041,35.477   c-7.554,13.286-13.91,28.092-18.986,44.01c-14.904-5.584-28.442-12.37-40.058-20.224   C131.458,165.286,161.225,144.461,195.319,133.244z M353.802,273.219c0.383,3.946,0.7,7.952,0.981,11.965   c-7.161,2.842-12.637,9.034-14.483,16.634h-78.915v-55.247c24.77-0.558,48.759-3.683,71.439-9.318L353.802,273.219z    M245.216,246.571v55.249h-94.031c0.565-23.879,3.622-46.938,8.96-68.231C186.094,241.407,214.995,245.891,245.216,246.571z    M164.597,217.903c4.747-14.932,10.685-28.789,17.736-41.192c17.352-30.521,39.433-48.725,62.884-52.139v105.823   C216.788,229.697,189.231,225.346,164.597,217.903z M245.216,317.988v57.084c-30.02,0.678-58.776,5.12-84.627,12.864   c-5.609-21.769-8.824-45.425-9.404-69.948H245.216z M245.216,391.246v103.989c-23.451-3.414-45.531-21.617-62.884-52.139   c-6.785-11.934-12.539-25.216-17.193-39.506C189.652,396.241,217.026,391.941,245.216,391.246z M261.384,391.246   c28.184,0.694,55.551,4.993,80.058,12.338c-16.609,51.177-46.276,86.714-80.058,91.648V391.246L261.384,391.246z M261.384,375.072   v-57.084h80.665c2.641,5.392,7.246,9.65,12.878,11.843c-1.222,20.562-4.314,40.11-8.944,58.097   C320.139,380.188,291.393,375.749,261.384,375.072z M363.6,315.293c-4.309,0-7.814-3.505-7.814-7.814   c0-4.308,3.505-7.812,7.814-7.812c4.308,0,7.812,3.504,7.812,7.812C371.413,311.787,367.909,315.293,363.6,315.293z    M110.206,428.488c11.53-7.663,24.914-14.294,39.616-19.76c4.986,15.291,11.163,29.534,18.455,42.359   c8.072,14.198,17.177,26.078,27.041,35.477C161.722,475.509,132.322,455.128,110.206,428.488z M410.206,210.12   c17.569,27.544,27.447,58.947,28.844,91.7H386.9c-1.97-8.112-8.074-14.622-15.949-17.165c-0.148-2.154-0.303-4.296-0.48-6.44   c0.036-0.057,0.079-0.109,0.113-0.167L410.206,210.12z M324.314,222.669c-20.047,4.626-41.155,7.218-62.93,7.732V124.578   c3.249,0.475,6.48,1.226,9.669,2.267c1.93,6.012,4.452,11.881,7.582,17.513c0.027,0.05,0.055,0.098,0.083,0.147L324.314,222.669z"/>
	<path style="fill:#231F20;" d="M304.935,96.948c0,31.364,25.516,56.879,56.879,56.879c31.364,0,56.88-25.516,56.88-56.879   c0-31.364-25.516-56.879-56.88-56.879C330.451,40.069,304.935,65.585,304.935,96.948z M402.527,96.948   c0,22.448-18.263,40.711-40.712,40.711c-22.448,0-40.711-18.263-40.711-40.711s18.263-40.711,40.711-40.711   C384.264,56.237,402.527,74.5,402.527,96.948z"/>
</g>
<g>
</g>
<g>
</g>
<g>
</g>
<g>
</g>
<g>
</g>
<g>
</g>
<g>
</g>
<g>
</g>
<g>
</g>
<g>
</g>
<g>
</g>
<g>
</g>
<g>
</g>
<g>
</g>
<g>
</g>
</svg>
