<?xml version="1.0" encoding="utf-8"?>
<!-- Generator: Adobe Illustrator 22.0.0, SVG Export Plug-In . SVG Version: 6.00 Build 0)  -->
<svg version="1.1" id="Layer_1" xmlns="http://www.w3.org/2000/svg" xmlns:xlink="http://www.w3.org/1999/xlink" x="0px" y="0px"
	 viewBox="0 0 500 500" style="enable-background:new 0 0 500 500;" xml:space="preserve">
<style type="text/css">
	.st0{fill:#C9C9C9;}
	.st1{fill:#A0A0A0;}
	.st2{fill:#71CCFF;}
	.st3{fill:#231F20;}
	.st4{fill:#F9F9F9;}
	.st5{fill:#7A7979;}
	.st6{fill:#4C4C4C;}
	.st7{fill:#F9B630;}
	.st8{fill:#D88A0E;}
	.st9{fill:#FFEDCC;}
	.st10{fill:#C0E7F9;}
	.st11{fill:#08B26C;}
	.st12{fill:#15A9EA;}
	.st13{fill:none;stroke:#C9C9C9;stroke-width:10;stroke-linecap:round;stroke-linejoin:round;stroke-miterlimit:10;}
	.st14{fill:none;stroke:#231F20;stroke-width:10;stroke-linecap:round;stroke-linejoin:round;stroke-miterlimit:10;}
	.st15{fill:#FFFFFF;}
	.st16{fill:#35EF9F;}
	.st17{fill:#22A6E0;}
	.st18{fill:#FC3A6D;}
	.st19{fill:#FFA9C8;}
	.st20{fill:#038E52;}
	.st21{fill:#E2074B;}
</style>
<g>
	<g>
		<circle class="st11" cx="250" cy="295.1" r="168.9"/>
	</g>
</g>
<g>
	<g>
		<path class="st2" d="M414.9,295.1h-73.7c0,0-1.8,55.6-14.2,90.4c0,0,35.3,19.3,41.4,30c0,0,47.3-40.3,50.4-117.1L414.9,295.1z"/>
	</g>
</g>
<g>
	<g>
		<path class="st2" d="M158.8,295.1H250v71.8c0,0-34.5-2.9-77.1,18.6C172.9,385.5,156.6,346.3,158.8,295.1z"/>
	</g>
</g>
<g>
	<g>
		<path class="st2" d="M250,366.9c27.8,0,54,6.7,77.1,18.6C310.9,432.7,282.4,464,250,464V366.9z"/>
	</g>
</g>
<g>
	<g>
		<path class="st3" d="M250,469c-95.9,0-173.9-78-173.9-173.9c0-95.9,78-173.9,173.9-173.9s173.9,78,173.9,173.9
			C423.9,391,345.9,469,250,469z M250,131.1c-90.4,0-163.9,73.5-163.9,163.9C86.1,385.5,159.6,459,250,459s163.9-73.5,163.9-163.9
			C413.9,204.7,340.4,131.1,250,131.1z"/>
	</g>
</g>
<g>
	<g>
		<path class="st16" d="M135.6,204.8c-1.1,0-2.3-0.4-3.2-1.2c-2.1-1.8-2.4-4.9-0.6-7c10.2-12.3,22.3-22.8,35.7-31.4
			c2.3-1.5,5.4-0.8,6.9,1.5s0.8,5.4-1.5,6.9c-12.6,8-23.8,17.9-33.4,29.4C138.5,204.2,137.1,204.8,135.6,204.8z"/>
	</g>
</g>
<g>
	<g>
		<path class="st16" d="M122.1,223.8c-0.9,0-1.8-0.2-2.6-0.7c-2.4-1.4-3.1-4.5-1.7-6.9c0.6-1,1.3-2.1,1.9-3.1c1.5-2.3,4.6-3,6.9-1.6
			c2.3,1.5,3,4.6,1.6,6.9c-0.6,1-1.2,1.9-1.8,2.9C125.5,222.9,123.8,223.8,122.1,223.8z"/>
	</g>
</g>
<g>
	<g>
		<path class="st16" d="M131.5,390.2c-1.5,0-3-0.7-4-2c-20.6-27-31.4-59.2-31.4-93.1c0-21.1,4.2-41.6,12.5-60.8
			c1.1-2.5,4-3.7,6.6-2.6c2.5,1.1,3.7,4,2.6,6.6c-7.8,18-11.7,37.1-11.7,56.9c0,31.7,10.2,61.8,29.4,87.1c1.7,2.2,1.3,5.3-0.9,7
			C133.6,389.8,132.6,390.2,131.5,390.2z"/>
	</g>
</g>
<g>
	<g>
		<path class="st16" d="M364.4,204.8c-1.4,0-2.9-0.6-3.8-1.8c-9.6-11.5-20.8-21.4-33.4-29.4c-2.3-1.5-3-4.6-1.5-6.9
			c1.5-2.3,4.6-3,6.9-1.5c13.5,8.6,25.5,19.1,35.7,31.4c1.8,2.1,1.5,5.3-0.6,7C366.6,204.4,365.5,204.8,364.4,204.8z"/>
	</g>
</g>
<g>
	<g>
		<path class="st16" d="M377.9,223.8c-1.7,0-3.4-0.9-4.3-2.4c-0.6-1-1.2-1.9-1.8-2.9c-1.5-2.3-0.8-5.4,1.6-6.9
			c2.3-1.5,5.4-0.8,6.9,1.6c0.6,1,1.3,2.1,1.9,3.1c1.4,2.4,0.6,5.4-1.7,6.9C379.6,223.6,378.8,223.8,377.9,223.8z"/>
	</g>
</g>
<g>
	<g>
		<path class="st16" d="M368.5,390.2c-1.1,0-2.1-0.3-3-1c-2.2-1.7-2.6-4.8-0.9-7c19.2-25.2,29.4-55.3,29.4-87.1
			c0-19.7-3.9-38.9-11.7-56.9c-1.1-2.5,0.1-5.5,2.6-6.6c2.5-1.1,5.5,0.1,6.6,2.6c8.3,19.3,12.5,39.7,12.5,60.8
			c0,33.9-10.9,66.1-31.4,93.1C371.5,389.5,370,390.2,368.5,390.2z"/>
	</g>
</g>
<g>
	<g>
		<path class="st10" d="M368.5,390.2c-1.1,0-2.1-0.3-3-1c-2.2-1.7-2.6-4.8-0.9-7c19.2-25.2,29.4-55.3,29.4-87.1c0-2.8,2.2-5,5-5
			s5,2.2,5,5c0,33.9-10.9,66.1-31.4,93.1C371.5,389.5,370,390.2,368.5,390.2z"/>
	</g>
</g>
<g>
	<g>
		<path class="st3" d="M162.4,120.3c-1.9,0-3.6-1-4.5-2.8c-1.2-2.5-0.2-5.5,2.3-6.7c1.5-0.7,3.1-1.5,4.6-2.2c2.5-1.2,5.5,0,6.6,2.5
			s0,5.5-2.5,6.6c-1.5,0.7-2.9,1.4-4.4,2.1C163.9,120.1,163.2,120.3,162.4,120.3z"/>
	</g>
</g>
<g>
	<g>
		<path class="st3" d="M63.3,228.2c-0.6,0-1.2-0.1-1.8-0.3c-2.6-1-3.9-3.9-2.9-6.5c15.3-39.8,43.5-74.6,79.3-98
			c2.3-1.5,5.4-0.9,6.9,1.4c1.5,2.3,0.9,5.4-1.4,6.9C109.4,154.1,82.6,187.2,68,225C67.3,227,65.4,228.2,63.3,228.2z"/>
	</g>
</g>
<g>
	<g>
		<path class="st3" d="M55.9,252c-0.4,0-0.8,0-1.2-0.1c-2.7-0.7-4.3-3.4-3.7-6.1c0.4-1.8,0.9-3.6,1.4-5.3c0.7-2.7,3.5-4.2,6.1-3.5
			c2.7,0.7,4.2,3.5,3.5,6.1c-0.5,1.7-0.9,3.4-1.3,5.1C60.2,250.5,58.1,252,55.9,252z"/>
	</g>
</g>
<g>
	<g>
		<path class="st3" d="M250,500c-113,0-204.9-91.9-204.9-204.9c0-3.4,0.1-6.7,0.2-10.1c0.1-2.8,2.5-4.9,5.2-4.8
			c2.8,0.1,4.9,2.5,4.8,5.2c-0.2,3.2-0.2,6.4-0.2,9.6C55.1,402.5,142.5,490,250,490c70.6,0,135.9-38.4,170.4-100.1
			c1.3-2.4,4.4-3.3,6.8-1.9c2.4,1.3,3.3,4.4,1.9,6.8C392.9,459.7,324.3,500,250,500z"/>
	</g>
</g>
<g>
	<g>
		<path class="st3" d="M434.7,376.8c-0.6,0-1.3-0.1-1.9-0.4c-2.5-1.1-3.8-4-2.7-6.5c1.7-4,3.2-8.1,4.6-12.3c0.9-2.6,3.7-4,6.3-3.1
			c2.6,0.9,4,3.7,3.1,6.3c-1.5,4.3-3.1,8.7-4.9,12.9C438.5,375.6,436.7,376.8,434.7,376.8z"/>
	</g>
</g>
<g>
	<g>
		<path class="st3" d="M444.8,345.3c-0.4,0-0.8,0-1.1-0.1c-2.7-0.6-4.4-3.3-3.7-6c0.5-2.2,1-4.4,1.4-6.6c2.4-12.3,3.6-24.9,3.6-37.5
			c0-82.7-52.4-156.6-130.4-184c-2.6-0.9-4-3.8-3.1-6.4c0.9-2.6,3.8-4,6.4-3.1c82,28.8,137.1,106.5,137.1,193.4
			c0,13.2-1.3,26.5-3.8,39.4c-0.4,2.3-0.9,4.6-1.5,6.9C449.1,343.7,447.1,345.3,444.8,345.3z"/>
	</g>
</g>
<g>
	<g>
		<path class="st3" d="M250,469c-45.9,0-89.3-17.8-122-50c-1-0.9-1.5-2.2-1.5-3.6c0-1.3,0.5-2.6,1.5-3.6c32.7-32.2,76.1-50,122-50
			s89.3,17.8,122,50c1,0.9,1.5,2.2,1.5,3.6c0,1.3-0.5,2.6-1.5,3.6C339.3,451.2,295.9,469,250,469z M138.7,415.4
			C169.1,443.6,208.4,459,250,459s80.9-15.4,111.3-43.6c-30.4-28.1-69.7-43.6-111.3-43.6S169.1,387.3,138.7,415.4z"/>
	</g>
</g>
<g>
	<g>
		<path class="st2" d="M234.7,126.1c0,0-38.1,9.1-61.8,78.5c0,0-38.5-19-41.4-30C131.5,174.7,165.5,134.8,234.7,126.1z"/>
	</g>
</g>
<g>
	<g>
		<path class="st2" d="M250,165.4v57.8c27.8,0,54-6.7,77.1-18.6c-16.2-47.2-44.7-78.5-77.1-78.5"/>
	</g>
</g>
<g>
	<g>
		<path class="st10" d="M146.6,192.9c-1.3,0-2.6-0.5-3.6-1.5c-1.9-2-1.9-5.2,0.1-7.1c7.4-7.2,15.6-13.6,24.3-19.2
			c2.3-1.5,5.4-0.8,6.9,1.5c1.5,2.3,0.8,5.4-1.5,6.9c-8.1,5.2-15.8,11.2-22.7,17.9C149.2,192.5,147.9,192.9,146.6,192.9z"/>
	</g>
</g>
<g>
	<g>
		<path class="st3" d="M250,228.2c-45.9,0-89.3-17.8-122-50c-1-0.9-1.5-2.2-1.5-3.6s0.5-2.6,1.5-3.6c32.7-32.2,76.1-50,122-50
			s89.3,17.8,122,50c1,0.9,1.5,2.2,1.5,3.6s-0.5,2.6-1.5,3.6C339.3,210.5,295.9,228.2,250,228.2z M138.7,174.7
			c30.4,28.1,69.7,43.6,111.3,43.6s80.9-15.4,111.3-43.6c-30.4-28.1-69.7-43.6-111.3-43.6S169.1,146.6,138.7,174.7z"/>
	</g>
</g>
<g>
	<g>
		<path class="st3" d="M250,469c-26.3,0-50.8-18.5-68.9-52.1c-17.6-32.6-27.3-75.9-27.3-121.8s9.7-89.2,27.3-121.8
			c18.1-33.6,42.6-52.1,68.9-52.1s50.8,18.5,68.9,52.1c17.6,32.6,27.3,75.9,27.3,121.8s-9.7,89.2-27.3,121.8
			C300.8,450.5,276.3,469,250,469z M250,131.1c-22.5,0-43.8,16.6-60.1,46.9c-16.8,31.2-26.1,72.8-26.1,117.1s9.3,85.9,26.1,117.1
			c16.3,30.2,37.7,46.9,60.1,46.9s43.8-16.6,60.1-46.9c16.8-31.2,26.1-72.8,26.1-117.1S327,209.2,310.1,178
			C293.8,147.8,272.5,131.1,250,131.1z"/>
	</g>
</g>
<g>
	<g>
		<path class="st3" d="M250,469c-2.8,0-5-2.2-5-5V187.9c0-2.8,2.2-5,5-5s5,2.2,5,5V464C255,466.8,252.8,469,250,469z"/>
	</g>
</g>
<g>
	<g>
		<path class="st3" d="M418.9,300.1H81.1c-2.8,0-5-2.2-5-5s2.2-5,5-5h337.9c2.8,0,5,2.2,5,5S421.7,300.1,418.9,300.1z"/>
	</g>
</g>
<g>
	<g>
		<path class="st7" d="M210.1,5l0,181.7c0,5.5,4.5,10,10,10h0c5.5,0,10-4.5,10-10V89.4v46.1c0,5.5,4.5,10,10,10h0
			c5.5,0,10-4.5,10-10V99.9v35.6c0,5.5,4.5,10,10,10h0c5.5,0,10-4.5,10-10V99.9v35.6c0,5.5,4.5,10,10,10h0c5.5,0,10-4.5,10-10V60.2
			c0-9-4.9-16.8-12.1-21.1c-7.8-4.5-12.3-13.1-12.3-22V5H210.1z"/>
	</g>
</g>
<g>
	<g>
		<path class="st3" d="M220.1,201.7c-8.3,0-15-6.7-15-15V5c0-2.8,2.2-5,5-5s5,2.2,5,5v181.7c0,2.7,2.2,5,5,5c2.7,0,5-2.2,5-5V89.4
			c0-2.8,2.2-5,5-5s5,2.2,5,5v46.1c0,2.7,2.2,5,5,5c2.7,0,5-2.2,5-5V99.9c0-2.8,2.2-5,5-5s5,2.2,5,5v35.6c0,2.7,2.2,5,5,5
			c2.7,0,5-2.2,5-5V99.9c0-2.8,2.2-5,5-5s5,2.2,5,5v35.6c0,2.7,2.2,5,5,5c2.7,0,5-2.2,5-5V60.3c0-6.9-3.7-13.3-9.6-16.8
			c-9.1-5.3-14.8-15.4-14.8-26.4V5c0-2.8,2.2-5,5-5s5,2.2,5,5v12.1c0,7.4,3.8,14.2,9.8,17.7c9,5.3,14.6,15,14.6,25.4v75.3
			c0,8.3-6.7,15-15,15c-3.8,0-7.3-1.4-10-3.8c-2.7,2.4-6.1,3.8-10,3.8c-3.8,0-7.3-1.4-10-3.8c-2.7,2.4-6.1,3.8-10,3.8
			c-1.7,0-3.4-0.3-5-0.8v37C235.1,194.9,228.3,201.7,220.1,201.7z"/>
	</g>
</g>
<g>
	<g>
		<path class="st3" d="M237.6,93.8h-27.5c-2.8,0-5-2.2-5-5V67.9c0-2.8,2.2-5,5-5s5,2.2,5,5v15.9h22.5c3,0,5.4-2.4,5.4-5.4
			s-2.4-5.4-5.4-5.4h-8.5c-2.8,0-5-2.2-5-5s2.2-5,5-5h8.5c8.5,0,15.4,6.9,15.4,15.4S246.1,93.8,237.6,93.8z"/>
	</g>
</g>
<g>
	<g>
		<path class="st9" d="M229.1,16.2c-2.8,0-5-2.2-5-5V5c0-2.8,2.2-5,5-5s5,2.2,5,5v6.2C234.1,13.9,231.8,16.2,229.1,16.2z"/>
	</g>
</g>
<g>
	<g>
		<path class="st9" d="M229.1,53.7c-2.8,0-5-2.2-5-5V27.5c0-2.8,2.2-5,5-5s5,2.2,5,5v21.2C234.1,51.4,231.8,53.7,229.1,53.7z"/>
	</g>
</g>
<g>
	<g>
		<path class="st3" d="M250,176c-2.8,0-5-2.2-5-5v-3.6c0-2.8,2.2-5,5-5s5,2.2,5,5v3.6C255,173.8,252.8,176,250,176z"/>
	</g>
</g>
</svg>
